<svg width="60.000000" height="60.000000" viewBox="0 0 60 60" fill="none" xmlns="http://www.w3.org/2000/svg" xmlns:xlink="http://www.w3.org/1999/xlink">
	<desc>
			Created with Pixso.
	</desc>
	<defs/>
	<path id="Vector" d="M50.38 16.48C50.38 18 50.17 19.51 49.75 20.98L54.67 20.98C57.34 20.98 59.5 23.1 59.5 25.73L59.5 40.46C59.5 44.12 58.45 47.71 56.48 50.81C54.51 53.91 51.69 56.4 48.35 58C45.01 59.59 41.28 60.22 37.59 59.82C33.9 59.42 30.4 58 27.49 55.73L23.89 59.28C23.68 59.5 23.43 59.68 23.15 59.8C22.87 59.92 22.57 59.99 22.26 59.99C21.96 60 21.65 59.94 21.37 59.83C21.09 59.72 20.83 59.55 20.61 59.34C20.4 59.12 20.23 58.87 20.11 58.59C20 58.31 19.94 58.01 19.94 57.71C19.95 57.41 20.02 57.11 20.14 56.83C20.27 56.56 20.45 56.31 20.67 56.1L24.27 52.55C23.06 51.05 22.08 49.38 21.37 47.59C18.72 48.12 15.98 48.07 13.36 47.43C10.73 46.79 8.29 45.59 6.19 43.9C4.1 42.21 2.41 40.09 1.25 37.68C0.1 35.27 -0.51 32.63 -0.5 29.97L-0.5 16.52C-0.5 14.02 1.55 11.98 4.09 11.98L17.59 11.98C18.59 8.53 20.69 5.49 23.59 3.33C26.5 1.17 30.03 0 33.67 0L46.01 0C48.42 0 50.38 1.93 50.38 4.31L50.38 16.48ZM22.19 12.53C24.72 13.16 27.07 14.32 29.1 15.92C31.14 17.52 32.8 19.53 33.98 21.82C35.85 21.26 37.79 20.97 39.75 20.98L44.94 20.98C45.53 19.55 45.83 18.02 45.82 16.48L45.82 4.49L33.67 4.49C31.15 4.49 28.69 5.26 26.63 6.7C24.58 8.15 23.03 10.18 22.19 12.53ZM30.74 52.52C33 54.17 35.68 55.16 38.48 55.39C41.28 55.62 44.09 55.08 46.6 53.83C49.11 52.58 51.21 50.67 52.69 48.31C54.16 45.95 54.94 43.23 54.94 40.46L54.94 25.73C54.94 25.7 54.93 25.66 54.92 25.63C54.91 25.6 54.89 25.57 54.86 25.55C54.84 25.52 54.81 25.5 54.78 25.49C54.75 25.48 54.71 25.47 54.68 25.47L39.75 25.47C36.94 25.47 34.18 26.24 31.79 27.69C29.4 29.14 27.46 31.22 26.19 33.7C24.92 36.17 24.38 38.94 24.61 41.71C24.85 44.47 25.85 47.11 27.52 49.34L40.42 36.62C40.62 36.4 40.88 36.22 41.16 36.1C41.44 35.98 41.74 35.91 42.04 35.91C42.35 35.9 42.65 35.96 42.94 36.07C43.22 36.18 43.48 36.35 43.69 36.56C43.91 36.78 44.08 37.03 44.2 37.31C44.31 37.59 44.37 37.89 44.36 38.19C44.36 38.49 44.29 38.79 44.16 39.07C44.04 39.34 43.86 39.59 43.64 39.8L30.74 52.52ZM20 40.46C20 38.68 20.24 36.96 20.69 35.33L12.32 27.06C12.09 26.85 11.91 26.61 11.79 26.33C11.66 26.05 11.6 25.76 11.59 25.45C11.58 25.15 11.64 24.85 11.76 24.57C11.87 24.29 12.04 24.04 12.26 23.83C12.47 23.61 12.73 23.44 13.02 23.33C13.3 23.22 13.6 23.16 13.91 23.17C14.21 23.17 14.52 23.24 14.8 23.36C15.08 23.48 15.33 23.66 15.54 23.88L22.58 30.83C24.3 27.84 26.79 25.36 29.79 23.63C28.63 21.47 26.89 19.66 24.76 18.4C22.64 17.14 20.2 16.48 17.72 16.48L4.08 16.48L4.06 16.49C4.06 16.5 4.06 16.5 4.06 16.51L4.05 16.52L4.05 29.97C4.05 31.95 4.49 33.9 5.34 35.69C6.19 37.48 7.43 39.07 8.98 40.33C10.52 41.6 12.32 42.52 14.26 43.02C16.2 43.52 18.23 43.59 20.2 43.23C20.07 42.31 20 41.39 20 40.46Z" fill="#754E29" fill-opacity="1.000000" fill-rule="nonzero"/>
</svg>
