<svg width="64.000000" height="64.000000" viewBox="0 0 64 64" fill="none" xmlns="http://www.w3.org/2000/svg" xmlns:xlink="http://www.w3.org/1999/xlink">
	<desc>
			Created with Pixso.
	</desc>
	<defs/>
	<path id="Vector" d="M31.5 1.98C32.63 1.98 33.74 2.24 34.73 2.74L59.78 15.45C60.3 15.71 60.73 16.1 61.04 16.57C61.34 17.03 61.5 17.57 61.5 18.11L61.5 43.18C61.49 44.26 61.18 45.33 60.57 46.26C59.97 47.2 59.1 47.97 58.06 48.5L34.73 60.34C33.74 60.84 32.63 61.1 31.5 61.1C30.36 61.1 29.25 60.84 28.26 60.34L4.93 48.5C3.89 47.97 3.02 47.2 2.42 46.26C1.81 45.33 1.5 44.26 1.5 43.18L1.5 18.11C1.5 17.57 1.65 17.03 1.95 16.57C2.26 16.1 2.69 15.71 3.21 15.45L28.26 2.74C29.25 2.24 30.36 1.98 31.5 1.98Z" stroke="#754E29" stroke-opacity="1.000000" stroke-width="4.166667" stroke-linejoin="round"/>
	<path id="Vector" d="M1.5 16.32L31.5 31.54L61.5 16.32M31.5 31.54L31.5 " stroke="#754E29" stroke-opacity="1.000000" stroke-width="4.166667" stroke-linejoin="round"/>
	<path id="Vector" d="M16.5 23.93L46.5 8.71M11.5 32.54L21.5 " stroke="#754E29" stroke-opacity="1.000000" stroke-width="4.166667" stroke-linejoin="round"/>
</svg>
