<svg width="30.000000" height="26.000000" viewBox="0 0 30 26" fill="none" xmlns="http://www.w3.org/2000/svg" xmlns:xlink="http://www.w3.org/1999/xlink">
	<desc>
			Created with Pixso.
	</desc>
	<defs>
		<filter id="filter_23_456_dd" x="0.000000" y="0.000000" width="30.000000" height="26.000000" filterUnits="userSpaceOnUse" color-interpolation-filters="sRGB">
			<feFlood flood-opacity="0" result="BackgroundImageFix"/>
			<feColorMatrix in="SourceAlpha" type="matrix" values="0 0 0 0 0 0 0 0 0 0 0 0 0 0 0 0 0 0 127 0" result="hardAlpha"/>
			<feOffset dx="0" dy="4"/>
			<feGaussianBlur stdDeviation="1.33333"/>
			<feComposite in2="hardAlpha" operator="out" k2="-1" k3="1"/>
			<feColorMatrix type="matrix" values="0 0 0 0 0 0 0 0 0 0 0 0 0 0 0 0 0 0 0.25 0"/>
			<feBlend mode="normal" in2="BackgroundImageFix" result="effect_dropShadow_1"/>
			<feBlend mode="normal" in="SourceGraphic" in2="effect_dropShadow_1" result="shape"/>
		</filter>
	</defs>
	<g filter="url(#filter_23_456_dd)">
		<rect id="icon" width="22.000069" height="18.000000" transform="translate(4.000000 0.000000)" fill="#FFFFFF" fill-opacity="0"/>
		<path id="icon" d="M22.78 1.2C23.13 1.12 23.37 1.04 23.57 0.96C23.85 0.84 24.08 0.7 24.44 0.47C24.75 0.28 25.14 0.26 25.47 0.43C25.79 0.6 26 0.92 26 1.28C26 2.32 25.86 3.17 25.55 3.93C25.29 4.56 24.92 5.07 24.48 5.54C24.29 8.78 23.32 11.33 21.83 13.26C20.29 15.26 18.23 16.54 16.07 17.26C13.91 17.97 11.63 18.13 9.59 17.89C7.56 17.65 5.69 17 4.38 16.02C4.02 15.75 3.9 15.29 4.07 14.88C4.25 14.48 4.69 14.24 5.14 14.31C6.42 14.48 7.66 14.2 8.68 13.8C8.48 13.69 8.29 13.58 8.11 13.46C7.19 12.84 6.44 12 6.1 11.35C5.96 11.08 5.96 10.77 6.1 10.5C6.17 10.36 6.27 10.24 6.4 10.15C5.04 9.07 4.5 7.58 4.5 6.58C4.5 6.28 4.64 6 4.88 5.82C4.98 5.74 5.1 5.69 5.22 5.65C5.12 5.37 5.04 5.08 4.98 4.8C4.71 3.56 4.74 2.16 5.03 1.04C5.12 0.66 5.45 0.38 5.86 0.32C6.26 0.27 6.66 0.45 6.86 0.79C7.94 2.6 9.93 3.7 11.78 4.35C12.65 4.66 13.45 4.85 14.05 4.97C14.18 3.79 14.53 2.82 15.05 2.05C15.74 1.04 16.7 0.43 17.74 0.16C19.52 -0.3 21.5 0.23 22.78 1.2ZM13.74 6.88C13.06 6.75 12.12 6.52 11.09 6.16C9.73 5.68 8.16 4.94 6.84 3.78C6.86 3.99 6.89 4.2 6.94 4.41C7.16 5.44 7.57 6.02 7.94 6.2C8.4 6.42 8.61 6.94 8.43 7.4C8.19 8.02 7.56 8.07 6.99 7.94C7.45 8.6 8.28 9.27 9.66 9.49C10.14 9.56 10.49 9.96 10.5 10.42C10.5 10.89 10.16 11.29 9.69 11.38L8.82 11.55C8.95 11.66 9.1 11.77 9.25 11.88C9.95 12.34 10.65 12.54 11.25 12.4C11.71 12.29 12.18 12.49 12.39 12.89C12.6 13.3 12.49 13.78 12.14 14.07C11.49 14.59 10.74 15 9.99 15.35C9.63 15.51 9.24 15.67 8.81 15.81C9.14 15.88 9.48 15.93 9.84 15.98C11.61 16.19 13.58 16.04 15.42 15.43C17.26 14.82 18.95 13.75 20.22 12.11C21.49 10.46 22.38 8.19 22.5 5.1C22.51 4.86 22.61 4.62 22.79 4.45C23.24 4.02 23.61 3.52 23.79 2.93C23.47 3.03 23.11 3.11 22.68 3.19C22.36 3.25 22.02 3.15 21.79 2.92C21.02 2.19 19.51 1.7 18.26 2.03C17.66 2.18 17.13 2.51 16.72 3.11C16.31 3.72 16 4.66 16 6.1C16 6.37 15.88 6.63 15.67 6.81C15.17 7.25 14.33 6.99 13.74 6.88Z" fill="#0F0F0F" fill-opacity="1.000000" fill-rule="evenodd"/>
	</g>
</svg>
